<svg id="Group_147" data-name="Group 147" xmlns="http://www.w3.org/2000/svg" width="261.344" height="88" viewBox="0 0 261.344 88">
  <rect id="Rectangle_158" data-name="Rectangle 158" width="88" height="88" rx="11.429" fill="#fff"/>
  <circle id="Ellipse_14" data-name="Ellipse 14" cx="12.504" cy="12.504" r="12.504" transform="translate(15.63 15.63)" fill="#6c5dd3"/>
  <circle id="Ellipse_15" data-name="Ellipse 15" cx="12.504" cy="12.504" r="12.504" transform="translate(15.63 46.892)" fill="#ffdee4"/>
  <circle id="Ellipse_16" data-name="Ellipse 16" cx="12.504" cy="12.504" r="12.504" transform="translate(46.892 15.63)" fill="#fab8c4"/>
  <circle id="Ellipse_17" data-name="Ellipse 17" cx="12.504" cy="12.504" r="12.504" transform="translate(46.892 46.892)" fill="#6c5dd3"/>
  <path id="Path_50" data-name="Path 50" d="M48.98,31.578c0,12.806,9.375,21.813,21.69,21.813,9.5,0,17.217-5.024,20.1-13.847H80.9c-2.022,4.166-5.7,6.188-10.294,6.188-7.475,0-12.806-5.514-12.806-14.154,0-8.7,5.331-14.154,12.806-14.154,4.6,0,8.272,2.022,10.294,6.127h9.865C87.887,14.79,80.167,9.7,70.67,9.7,58.355,9.7,48.98,18.772,48.98,31.578Zm55.854,4.534c0-6.556,3.064-8.517,8.149-8.517h2.267V18.588a11.773,11.773,0,0,0-10.416,5.759V19.079H96.256V53.023h8.578Zm28.816,6.679-8.762-23.712h-9.62l13.6,33.086-7.353,16.911h9.129l21.016-50h-9.129Zm29.378-18.81v-4.9h-8.579V69.2h8.579V48.182a13.858,13.858,0,0,0,11.213,5.392c8.7,0,15.5-7.046,15.5-17.646s-6.8-17.4-15.5-17.4A13.56,13.56,0,0,0,163.028,23.98ZM180.98,35.928c0,6.433-4.35,10.11-9.007,10.11-4.6,0-8.946-3.554-8.946-9.987s4.35-9.987,8.946-9.987C176.63,26.063,180.98,29.495,180.98,35.928Z" transform="translate(58.201 11.531)" fill="#292930"/>
  <path id="Path_51" data-name="Path 51" d="M125.153,30.128a5.275,5.275,0,1,0-5.208,5.024A5.014,5.014,0,0,0,125.153,30.128Z" transform="translate(136.191 29.83)" fill="#6c5dd3"/>
</svg>
