<svg xmlns="http://www.w3.org/2000/svg" width="24" height="12" viewBox="0 0 24 12">
  <g id="Group_152" data-name="Group 152" transform="translate(0 -6)">
    <path id="Path_69" data-name="Path 69" d="M3,6A1,1,0,0,0,3,8H5A1,1,0,0,0,5,6ZM0,12a1,1,0,0,1,1-1H5a1,1,0,0,1,0,2H1A1,1,0,0,1,0,12Zm3,5a1,1,0,0,1,1-1H5a1,1,0,0,1,0,2H4A1,1,0,0,1,3,17Z" fill-rule="evenodd" opacity="0.3"/>
    <path id="Path_70" data-name="Path 70" d="M10,6A2,2,0,0,0,8,8v8a2,2,0,0,0,2,2H22a2,2,0,0,0,2-2V8a2,2,0,0,0-2-2ZM21.926,8.316a.632.632,0,0,0-.841-.244L16,10.719,10.915,8.072a.632.632,0,0,0-.841.244.59.59,0,0,0,.252.813l5.379,2.8a.64.64,0,0,0,.589,0l5.379-2.8A.59.59,0,0,0,21.926,8.316Z" fill="#292930" fill-rule="evenodd"/>
  </g>
</svg>
