<svg xmlns="http://www.w3.org/2000/svg" xmlns:xlink="http://www.w3.org/1999/xlink" width="16" height="16" viewBox="0 0 16 16">
  <defs>
    <clipPath id="clip-path">
      <rect id="Rectangle_164" data-name="Rectangle 164" width="16" height="16" fill="#fff"/>
    </clipPath>
  </defs>
  <g id="Group_151" data-name="Group 151" clip-path="url(#clip-path)">
    <path id="Path_65" data-name="Path 65" d="M15,4H1A.945.945,0,0,0,0,5V15a.945.945,0,0,0,1,1H15a.945.945,0,0,0,1-1V5a.945.945,0,0,0-1-1ZM6,13V7l5,3Z" fill="#6c5dd3"/>
    <path id="Path_66" data-name="Path 66" d="M3,0H13a1,1,0,0,1,1,1V2H2V1A1,1,0,0,1,3,0Z" fill="#fab8c4"/>
    <rect id="Rectangle_163" data-name="Rectangle 163" width="6" height="8" transform="translate(5 6)" fill="#6c5dd3"/>
    <path id="Path_67" data-name="Path 67" d="M11.334,6.667,7.667,10.334" fill="none" stroke="#fff" stroke-linecap="round" stroke-linejoin="round" stroke-width="1"/>
    <path id="Path_68" data-name="Path 68" d="M11.334,6.667,9,13.334l-1.333-3L4.667,9Z" fill="none" stroke="#fff" stroke-linecap="round" stroke-linejoin="round" stroke-width="1"/>
  </g>
</svg>
