<?xml version="1.0" encoding="utf-8"?>
<!-- Generator: Adobe Illustrator 25.2.0, SVG Export Plug-In . SVG Version: 6.00 Build 0)  -->
<svg version="1.1" id="Layer_1" xmlns="http://www.w3.org/2000/svg" xmlns:xlink="http://www.w3.org/1999/xlink" x="0px" y="0px"
	 viewBox="0 0 1000 360" style="enable-background:new 0 0 1000 360;" xml:space="preserve">
<style type="text/css">
	.st0{fill:#010202;}
	.st1{fill:#103627;}
	.st2{fill:url(#SVGID_1_);}
	.st3{fill:#6BBC8A;}
	.st4{fill:#1DAA62;}
	.st5{fill:#FFFFFF;}
	.st6{fill:url(#SVGID_2_);}
</style>
<g>
	<g>
		<path class="st1" d="M339.9,179.9h19.8l9.6,54.4h3.9l9.6-54.4h19.8l-14.9,70.7h-32.7L339.9,179.9z"/>
		<path class="st1" d="M450.5,196.3v11H473v16h-22.5v11h28.8v16.3h-47.6v-70.7h47.6v16.3H450.5z"/>
		<path class="st1" d="M552.3,234.1v16.5h-41.1v-70.7h18.7v54.2H552.3z"/>
		<path class="st1" d="M582.2,249.1l-3.8-0.8l1.9-14.3c9.3,1.3,16.4,1.9,21.5,1.9c5.5,0,8.2-1.9,8.2-5.7c0-1.3-0.6-2.4-1.8-3.2
			c-1.2-0.8-3-1.6-5.4-2.5c-1.5-0.6-2.7-1-3.4-1.4c-7.9-2.7-13.6-5.7-16.9-9.2c-3.3-3.4-5-7.7-5-12.9c0-7.4,2.2-12.9,6.7-16.7
			c4.5-3.8,10.6-5.7,18.3-5.7c3.2,0,6.2,0.2,9,0.6c2.8,0.4,8,1.3,15.6,2.7l-1.5,14.5c-9.1-1.1-16.1-1.6-21-1.6
			c-5.8,0-8.6,1.6-8.6,4.7c0,1.1,0.7,1.9,2.1,2.7c1.4,0.7,3.6,1.7,6.6,2.8c3.1,1.1,5.1,1.9,6,2.3c4.6,1.9,8.2,3.7,10.7,5.5
			c2.5,1.8,4.3,3.9,5.5,6.5c1.1,2.5,1.7,5.7,1.7,9.6c0,4.9-1.1,9.1-3.4,12.6c-2.3,3.5-5.4,6.1-9.3,7.9c-3.9,1.8-8.3,2.7-13.1,2.7
			C596.8,252.1,589.9,251.1,582.2,249.1z"/>
		<path class="st1" d="M671,196.5H654v-16.5h52.6v16.5h-16.7v54.2H671V196.5z"/>
		<path class="st1" d="M768,241.6h-20.6l-1.4,9h-18.9l13.6-70.7h34.1l13.6,70.7h-18.9L768,241.6z M760,195.3h-4.6l-4.8,30.1h14.3
			L760,195.3z"/>
		<path class="st1" d="M877.7,179.9v70.7h-30l-11.4-54v54h-18.7v-70.7h30.7l10.4,52.3v-52.3H877.7z"/>
		<path class="st1" d="M955.7,182.4c4.5,1.6,7.7,4.9,9.6,9.7c2,4.9,2.9,12.4,2.9,22.5c0,9.1-0.8,16.2-2.3,21.1
			c-1.5,5-4.6,8.7-9.3,11.2c-4.7,2.5-11.7,3.7-21.2,3.7h-22.8v-70.7h22.8C944.6,179.9,951.3,180.8,955.7,182.4z M944.3,232
			c1.9-1.6,3.1-3.8,3.7-6.8c0.6-2.9,0.8-7.1,0.8-12.5c0-4.3-0.3-7.7-0.9-9.9c-0.6-2.3-1.9-3.9-3.8-4.9c-1.9-1-4.8-1.5-8.6-1.5h-4
			v38.1h4C939.5,234.3,942.4,233.6,944.3,232z"/>
	</g>
	<g>
		<linearGradient id="SVGID_1_" gradientUnits="userSpaceOnUse" x1="216.6405" y1="327.8597" x2="216.6405" y2="31.6867">
			<stop  offset="0" style="stop-color:#1AA75E"/>
			<stop  offset="1" style="stop-color:#6FBD8C"/>
		</linearGradient>
		<path class="st2" d="M237.2,126.6v118.3c0,14.7-7.8,28.2-20.5,35.6h0h0c-12.7-7.3-20.5-20.9-20.5-35.6V126.6L31.8,31.7l0,0
			C58.7,78.3,97.4,117,144,143.9l11,6.4v70.8c0,44,23.5,84.7,61.6,106.7l0,0l0,0c38.1-22,61.6-62.7,61.6-106.7v-70.8l11-6.4
			c46.6-26.9,85.3-65.6,112.2-112.2l0,0L237.2,126.6z"/>
		<path class="st3" d="M176.1,232.8c0,29.3,15.4,56.5,40.6,71.6h0v-24h0c-12.7-7.3-20.5-20.9-20.5-35.6V126.6L31.8,31.7l20.9,20.8
			c35.9,35.8,77.6,65.1,123.4,86.7l0,0V232.8z"/>
		<path class="st4" d="M257.2,232.8c0,29.3-15.4,56.5-40.6,71.6h0v-24h0c12.7-7.3,20.5-20.9,20.5-35.6V126.6l164.3-94.9l-20.9,20.8
			c-35.9,35.8-77.6,65.1-123.4,86.7l0,0V232.8z"/>
	</g>
</g>
</svg>
