<?xml version="1.0" encoding="utf-8"?>
<!-- Generator: Adobe Illustrator 25.2.0, SVG Export Plug-In . SVG Version: 6.00 Build 0)  -->
<svg version="1.1" id="Layer_1" xmlns="http://www.w3.org/2000/svg" xmlns:xlink="http://www.w3.org/1999/xlink" x="0px" y="0px"
	 viewBox="0 0 750 600" style="enable-background:new 0 0 750 600;" xml:space="preserve">
<style type="text/css">
	.st0{fill:#010202;}
	.st1{fill:#103627;}
	.st2{fill:url(#SVGID_1_);}
	.st3{fill:#6BBC8A;}
	.st4{fill:#1DAA62;}
	.st5{fill:#FFFFFF;}
	.st6{fill:url(#SVGID_2_);}
</style>
<g>
	<linearGradient id="SVGID_1_" gradientUnits="userSpaceOnUse" x1="374.9999" y1="570.6378" x2="374.9999" y2="29.3622">
		<stop  offset="0" style="stop-color:#1AA75E"/>
		<stop  offset="1" style="stop-color:#6FBD8C"/>
	</linearGradient>
	<path class="st2" d="M412.5,202.8v216.2c0,26.8-14.3,51.6-37.5,65h0h0c-23.2-13.4-37.5-38.2-37.5-65V202.8L37.1,29.4l0,0
		c49.2,85.2,119.9,155.9,205.1,205.1l20.1,11.6v129.5c0,80.5,42.9,154.8,112.6,195.1l0,0l0,0c69.7-40.2,112.6-114.6,112.6-195.1
		V246.1l20.1-11.6c85.2-49.2,155.9-119.9,205.1-205.1l0,0L412.5,202.8z"/>
	<path class="st3" d="M300.8,397c0,53.6,28.2,103.3,74.2,130.9h0v-43.9h0c-23.2-13.4-37.5-38.2-37.5-65V202.8L37.1,29.4l38.1,38.1
		c65.5,65.4,141.8,119,225.6,158.4l0,0V397z"/>
	<path class="st4" d="M449.2,397c0,53.6-28.2,103.3-74.2,130.9h0v-43.9h0c23.2-13.4,37.5-38.2,37.5-65V202.8L712.9,29.4l-38.1,38.1
		c-65.5,65.4-141.8,119-225.6,158.4l0,0V397z"/>
</g>
</svg>
